<mxfile host="65bd71144e" modified="2021-11-16T17:23:27.982Z" agent="5.0 (X11; Linux x86_64) AppleWebKit/537.36 (KHTML, like Gecko) Code/1.62.2 Chrome/91.0.4472.164 Electron/13.5.2 Safari/537.36" etag="6JEQqCi8zUhP9vfv5Uc_" version="15.7.4" type="embed">
    <diagram id="J4h2756de6_dddKEePie" name="Page-1">
        <mxGraphModel dx="1168" dy="664" grid="1" gridSize="10" guides="1" tooltips="1" connect="1" arrows="1" fold="1" page="1" pageScale="1" pageWidth="1169" pageHeight="827" math="0" shadow="0">
            <root>
                <mxCell id="0"/>
                <mxCell id="1" parent="0"/>
                <mxCell id="BDK5a-xeNE-3PEO9zAj9-8" value="" style="whiteSpace=wrap;html=1;fontSize=16;" parent="1" vertex="1">
                    <mxGeometry x="1010" y="680" width="159" height="147" as="geometry"/>
                </mxCell>
                <mxCell id="12" style="edgeStyle=orthogonalEdgeStyle;rounded=0;orthogonalLoop=1;jettySize=auto;html=1;exitX=1;exitY=0.25;exitDx=0;exitDy=0;entryX=0;entryY=0.5;entryDx=0;entryDy=0;startArrow=classic;startFill=1;" edge="1" parent="1" source="BDK5a-xeNE-3PEO9zAj9-1" target="10">
                    <mxGeometry relative="1" as="geometry"/>
                </mxCell>
                <mxCell id="13" style="edgeStyle=orthogonalEdgeStyle;rounded=0;orthogonalLoop=1;jettySize=auto;html=1;exitX=1;exitY=0.75;exitDx=0;exitDy=0;startArrow=classic;startFill=1;" edge="1" parent="1" source="BDK5a-xeNE-3PEO9zAj9-1" target="11">
                    <mxGeometry relative="1" as="geometry"/>
                </mxCell>
                <mxCell id="BDK5a-xeNE-3PEO9zAj9-1" value="NATS Broker" style="rounded=0;whiteSpace=wrap;html=1;fillColor=#ffe6cc;strokeColor=#d79b00;" parent="1" vertex="1">
                    <mxGeometry x="440" y="390" width="120" height="60" as="geometry"/>
                </mxCell>
                <mxCell id="BDK5a-xeNE-3PEO9zAj9-3" style="edgeStyle=orthogonalEdgeStyle;rounded=0;orthogonalLoop=1;jettySize=auto;html=1;exitX=0.5;exitY=0;exitDx=0;exitDy=0;entryX=0.152;entryY=0.993;entryDx=0;entryDy=0;startArrow=classic;startFill=1;endArrow=classic;endFill=1;entryPerimeter=0;" parent="1" source="BDK5a-xeNE-3PEO9zAj9-2" target="BDK5a-xeNE-3PEO9zAj9-1" edge="1">
                    <mxGeometry relative="1" as="geometry"/>
                </mxCell>
                <mxCell id="BDK5a-xeNE-3PEO9zAj9-2" value="Lobby Service" style="rounded=0;whiteSpace=wrap;html=1;fillColor=#dae8fc;strokeColor=#6c8ebf;" parent="1" vertex="1">
                    <mxGeometry x="320" y="530" width="120" height="50" as="geometry"/>
                </mxCell>
                <mxCell id="BDK5a-xeNE-3PEO9zAj9-4" value="&lt;b style=&quot;font-size: 24px;&quot;&gt;Legend&lt;/b&gt;" style="text;html=1;align=center;verticalAlign=middle;resizable=0;points=[];autosize=1;strokeColor=none;fillColor=none;fontSize=24;" parent="1" vertex="1">
                    <mxGeometry x="1020" y="690" width="100" height="30" as="geometry"/>
                </mxCell>
                <mxCell id="BDK5a-xeNE-3PEO9zAj9-5" value="MicroService" style="rounded=0;whiteSpace=wrap;html=1;fontSize=16;fillColor=#dae8fc;strokeColor=#6c8ebf;" parent="1" vertex="1">
                    <mxGeometry x="1030" y="727" width="122" height="23" as="geometry"/>
                </mxCell>
                <mxCell id="BDK5a-xeNE-3PEO9zAj9-6" value="ThirdParty" style="whiteSpace=wrap;html=1;fontSize=16;fillColor=#ffe6cc;strokeColor=#d79b00;" parent="1" vertex="1">
                    <mxGeometry x="1030" y="753" width="122" height="23" as="geometry"/>
                </mxCell>
                <mxCell id="BDK5a-xeNE-3PEO9zAj9-9" value="Client" style="rounded=0;whiteSpace=wrap;html=1;fontSize=16;fillColor=#f8cecc;strokeColor=#b85450;" parent="1" vertex="1">
                    <mxGeometry x="1030" y="779" width="122" height="23" as="geometry"/>
                </mxCell>
                <mxCell id="BDK5a-xeNE-3PEO9zAj9-11" style="edgeStyle=orthogonalEdgeStyle;rounded=0;orthogonalLoop=1;jettySize=auto;html=1;exitX=0.5;exitY=0;exitDx=0;exitDy=0;entryX=0.833;entryY=0.983;entryDx=0;entryDy=0;fontSize=16;startArrow=classic;startFill=1;endArrow=classic;endFill=1;entryPerimeter=0;" parent="1" source="BDK5a-xeNE-3PEO9zAj9-10" target="BDK5a-xeNE-3PEO9zAj9-1" edge="1">
                    <mxGeometry relative="1" as="geometry"/>
                </mxCell>
                <mxCell id="BDK5a-xeNE-3PEO9zAj9-32" style="edgeStyle=orthogonalEdgeStyle;rounded=0;orthogonalLoop=1;jettySize=auto;html=1;exitX=0.5;exitY=1;exitDx=0;exitDy=0;entryX=0.5;entryY=0;entryDx=0;entryDy=0;fontSize=16;startArrow=classic;startFill=1;endArrow=classic;endFill=1;" parent="1" source="BDK5a-xeNE-3PEO9zAj9-10" target="BDK5a-xeNE-3PEO9zAj9-31" edge="1">
                    <mxGeometry relative="1" as="geometry"/>
                </mxCell>
                <mxCell id="BDK5a-xeNE-3PEO9zAj9-10" value="Auth Service" style="rounded=0;whiteSpace=wrap;html=1;fillColor=#dae8fc;strokeColor=#6c8ebf;" parent="1" vertex="1">
                    <mxGeometry x="560" y="530" width="120" height="50" as="geometry"/>
                </mxCell>
                <mxCell id="BDK5a-xeNE-3PEO9zAj9-21" style="edgeStyle=orthogonalEdgeStyle;rounded=0;orthogonalLoop=1;jettySize=auto;html=1;exitX=0.5;exitY=1;exitDx=0;exitDy=0;fontSize=16;startArrow=classic;startFill=1;endArrow=classic;endFill=1;" parent="1" source="BDK5a-xeNE-3PEO9zAj9-20" target="BDK5a-xeNE-3PEO9zAj9-1" edge="1">
                    <mxGeometry relative="1" as="geometry"/>
                </mxCell>
                <mxCell id="BDK5a-xeNE-3PEO9zAj9-20" value="Main Service" style="rounded=0;whiteSpace=wrap;html=1;fontSize=16;fillColor=#dae8fc;strokeColor=#6c8ebf;" parent="1" vertex="1">
                    <mxGeometry x="440" y="290" width="120" height="60" as="geometry"/>
                </mxCell>
                <mxCell id="BDK5a-xeNE-3PEO9zAj9-28" style="edgeStyle=orthogonalEdgeStyle;rounded=0;orthogonalLoop=1;jettySize=auto;html=1;exitX=0.5;exitY=1;exitDx=0;exitDy=0;entryX=0.25;entryY=0;entryDx=0;entryDy=0;fontSize=16;startArrow=classic;startFill=1;endArrow=classic;endFill=1;" parent="1" source="BDK5a-xeNE-3PEO9zAj9-22" target="BDK5a-xeNE-3PEO9zAj9-20" edge="1">
                    <mxGeometry relative="1" as="geometry"/>
                </mxCell>
                <mxCell id="BDK5a-xeNE-3PEO9zAj9-22" value="WZ Clients" style="rounded=0;whiteSpace=wrap;html=1;fontSize=16;fillColor=#f8cecc;strokeColor=#b85450;" parent="1" vertex="1">
                    <mxGeometry x="350" y="140" width="120" height="60" as="geometry"/>
                </mxCell>
                <mxCell id="BDK5a-xeNE-3PEO9zAj9-29" style="edgeStyle=orthogonalEdgeStyle;rounded=0;orthogonalLoop=1;jettySize=auto;html=1;exitX=0.5;exitY=1;exitDx=0;exitDy=0;entryX=0.75;entryY=0;entryDx=0;entryDy=0;fontSize=16;startArrow=classic;startFill=1;endArrow=classic;endFill=1;" parent="1" source="BDK5a-xeNE-3PEO9zAj9-23" target="BDK5a-xeNE-3PEO9zAj9-20" edge="1">
                    <mxGeometry relative="1" as="geometry"/>
                </mxCell>
                <mxCell id="BDK5a-xeNE-3PEO9zAj9-23" value="Web Clients" style="rounded=0;whiteSpace=wrap;html=1;fontSize=16;fillColor=#f8cecc;strokeColor=#b85450;" parent="1" vertex="1">
                    <mxGeometry x="540" y="140" width="120" height="60" as="geometry"/>
                </mxCell>
                <mxCell id="BDK5a-xeNE-3PEO9zAj9-34" style="edgeStyle=orthogonalEdgeStyle;rounded=0;orthogonalLoop=1;jettySize=auto;html=1;exitX=0.5;exitY=0;exitDx=0;exitDy=0;entryX=0.5;entryY=1;entryDx=0;entryDy=0;fontSize=16;startArrow=classic;startFill=1;endArrow=classic;endFill=1;" parent="1" source="BDK5a-xeNE-3PEO9zAj9-30" target="BDK5a-xeNE-3PEO9zAj9-2" edge="1">
                    <mxGeometry relative="1" as="geometry"/>
                </mxCell>
                <mxCell id="BDK5a-xeNE-3PEO9zAj9-30" value="SQL DB&lt;br&gt;Lobby" style="rounded=0;whiteSpace=wrap;html=1;fontSize=16;fillColor=#ffe6cc;strokeColor=#d79b00;" parent="1" vertex="1">
                    <mxGeometry x="320" y="640" width="120" height="60" as="geometry"/>
                </mxCell>
                <mxCell id="BDK5a-xeNE-3PEO9zAj9-31" value="SQL DB&lt;br&gt;Auth" style="rounded=0;whiteSpace=wrap;html=1;fontSize=16;fillColor=#ffe6cc;strokeColor=#d79b00;" parent="1" vertex="1">
                    <mxGeometry x="560" y="640" width="120" height="60" as="geometry"/>
                </mxCell>
                <mxCell id="BDK5a-xeNE-3PEO9zAj9-39" style="edgeStyle=orthogonalEdgeStyle;rounded=0;orthogonalLoop=1;jettySize=auto;html=1;exitX=0;exitY=1;exitDx=0;exitDy=0;exitPerimeter=0;fontSize=16;startArrow=classic;startFill=1;endArrow=classic;endFill=1;" parent="1" source="BDK5a-xeNE-3PEO9zAj9-38" target="BDK5a-xeNE-3PEO9zAj9-22" edge="1">
                    <mxGeometry relative="1" as="geometry"/>
                </mxCell>
                <mxCell id="BDK5a-xeNE-3PEO9zAj9-40" style="edgeStyle=orthogonalEdgeStyle;rounded=0;orthogonalLoop=1;jettySize=auto;html=1;exitX=1;exitY=1;exitDx=0;exitDy=0;exitPerimeter=0;fontSize=16;startArrow=classic;startFill=1;endArrow=classic;endFill=1;" parent="1" source="BDK5a-xeNE-3PEO9zAj9-38" target="BDK5a-xeNE-3PEO9zAj9-23" edge="1">
                    <mxGeometry relative="1" as="geometry"/>
                </mxCell>
                <mxCell id="BDK5a-xeNE-3PEO9zAj9-38" value="" style="shape=umlActor;verticalLabelPosition=bottom;verticalAlign=top;html=1;outlineConnect=0;fontSize=16;" parent="1" vertex="1">
                    <mxGeometry x="485" y="30" width="30" height="60" as="geometry"/>
                </mxCell>
                <mxCell id="2" value="REST/WebSocket" style="text;html=1;align=center;verticalAlign=middle;resizable=0;points=[];autosize=1;strokeColor=none;fillColor=none;" parent="1" vertex="1">
                    <mxGeometry x="595" y="220" width="110" height="20" as="geometry"/>
                </mxCell>
                <mxCell id="3" value="REST" style="text;html=1;align=center;verticalAlign=middle;resizable=0;points=[];autosize=1;strokeColor=none;fillColor=none;" parent="1" vertex="1">
                    <mxGeometry x="366" y="220" width="50" height="20" as="geometry"/>
                </mxCell>
                <mxCell id="4" value="gRPC" style="text;html=1;align=center;verticalAlign=middle;resizable=0;points=[];autosize=1;strokeColor=none;fillColor=none;" parent="1" vertex="1">
                    <mxGeometry x="495" y="360" width="50" height="20" as="geometry"/>
                </mxCell>
                <mxCell id="5" value="gRPC" style="text;html=1;align=center;verticalAlign=middle;resizable=0;points=[];autosize=1;strokeColor=none;fillColor=none;" parent="1" vertex="1">
                    <mxGeometry x="560" y="470" width="50" height="20" as="geometry"/>
                </mxCell>
                <mxCell id="7" value="gRPC" style="text;html=1;align=center;verticalAlign=middle;resizable=0;points=[];autosize=1;strokeColor=none;fillColor=none;" parent="1" vertex="1">
                    <mxGeometry x="385" y="470" width="50" height="20" as="geometry"/>
                </mxCell>
                <mxCell id="8" value="SQL" style="text;html=1;align=center;verticalAlign=middle;resizable=0;points=[];autosize=1;strokeColor=none;fillColor=none;" parent="1" vertex="1">
                    <mxGeometry x="375" y="600" width="40" height="20" as="geometry"/>
                </mxCell>
                <mxCell id="9" value="SQL" style="text;html=1;align=center;verticalAlign=middle;resizable=0;points=[];autosize=1;strokeColor=none;fillColor=none;" parent="1" vertex="1">
                    <mxGeometry x="615" y="600" width="40" height="20" as="geometry"/>
                </mxCell>
                <mxCell id="10" value="EMail Service" style="whiteSpace=wrap;html=1;fillColor=#dae8fc;strokeColor=#6c8ebf;" vertex="1" parent="1">
                    <mxGeometry x="720" y="365" width="120" height="50" as="geometry"/>
                </mxCell>
                <mxCell id="11" value="SMS Service" style="whiteSpace=wrap;html=1;fillColor=#dae8fc;strokeColor=#6c8ebf;" vertex="1" parent="1">
                    <mxGeometry x="720" y="425" width="120" height="50" as="geometry"/>
                </mxCell>
                <mxCell id="14" value="gRPC" style="text;html=1;align=center;verticalAlign=middle;resizable=0;points=[];autosize=1;strokeColor=none;fillColor=none;" vertex="1" parent="1">
                    <mxGeometry x="669" y="371" width="50" height="20" as="geometry"/>
                </mxCell>
                <mxCell id="15" value="gRPC" style="text;html=1;align=center;verticalAlign=middle;resizable=0;points=[];autosize=1;strokeColor=none;fillColor=none;" vertex="1" parent="1">
                    <mxGeometry x="669" y="432" width="50" height="20" as="geometry"/>
                </mxCell>
            </root>
        </mxGraphModel>
    </diagram>
</mxfile>